<svg width="64" height="64" viewBox="0 0 64 64" fill="none" xmlns="http://www.w3.org/2000/svg">
  <rect width="64" height="64" rx="18" fill="#FFF5D6"/>
  <circle cx="47" cy="17" r="9" fill="#F59E0B"/>
  <circle cx="47" cy="17" r="5" fill="#FCD34D"/>
  <path d="M18 21C18 18.7909 19.7909 17 22 17H36C38.2091 17 40 18.7909 40 21V43C40 49.0751 35.0751 54 29 54C22.9249 54 18 49.0751 18 43V21Z" fill="#F8B400"/>
  <path d="M20 25H38V43C38 47.9706 33.9706 52 29 52C24.0294 52 20 47.9706 20 43V25Z" fill="#D97706"/>
  <path d="M40 23H45C48.3137 23 51 25.6863 51 29V33C51 36.3137 48.3137 39 45 39H40V35H44.5C46.433 35 48 33.433 48 31.5V30.5C48 28.567 46.433 27 44.5 27H40V23Z" fill="#B45309"/>
  <path d="M15 18C15 15.2386 17.2386 13 20 13H29.4C31.0784 13 32.6452 13.8444 33.5676 15.2474L34.3004 16.3613C34.9331 17.3232 36.0079 17.9032 37.1591 17.9032H39C41.7614 17.9032 44 20.1417 44 22.9032C44 25.6646 41.7614 27.9032 39 27.9032H20C17.2386 27.9032 15 25.6646 15 22.9032V18Z" fill="white"/>
  <path d="M21 12.5C22.9454 10.8828 26.1126 11.1489 27.7298 13.0943L29.5585 15.2935" stroke="white" stroke-width="3" stroke-linecap="round"/>
  <path d="M29 11C30.9454 9.38275 34.1126 9.64891 35.7298 11.5943L37.5585 13.7935" stroke="white" stroke-width="3" stroke-linecap="round"/>
  <path d="M17 43H41C40.1612 49.1985 35.1571 54 29 54C22.8429 54 17.8388 49.1985 17 43Z" fill="#7C2D12" fill-opacity="0.18"/>
  <circle cx="46" cy="45" r="3" fill="#84CC16"/>
  <path d="M46 39V51" stroke="#84CC16" stroke-width="2.5" stroke-linecap="round"/>
  <path d="M40 45H52" stroke="#84CC16" stroke-width="2.5" stroke-linecap="round"/>
</svg>
